<?xml version="1.0" standalone="no"?>
<!DOCTYPE svg PUBLIC "-//W3C//DTD SVG 20010904//EN"
 "http://www.w3.org/TR/2001/REC-SVG-20010904/DTD/svg10.dtd">
<svg version="1.0" xmlns="http://www.w3.org/2000/svg"
 width="180.000000pt" height="180.000000pt" viewBox="0 0 180.000000 180.000000"
 preserveAspectRatio="xMidYMid meet">
<metadata>
Created by potrace 1.15, written by Peter Selinger 2001-2017
</metadata>
<g transform="translate(0.000000,20.000000) scale(0.010000,-0.010000)"
fill="#000000" stroke="none">
<path d="M0 900 l0 -900 900 0 900 0 0 900 0 900 -900 0 -900 0 0 -900z m698
289 c51 -25 88 -77 98 -136 l7 -43 -45 0 c-44 0 -44 0 -56 45 -18 69 -91 97
-145 55 -57 -45 -42 -117 32 -154 25 -13 57 -27 71 -31 150 -46 188 -228 67
-319 -33 -24 -130 -33 -181 -16 -71 23 -126 88 -126 150 0 29 2 30 45 30 42 0
45 -2 45 -26 0 -15 12 -38 29 -55 24 -23 38 -29 73 -29 55 0 85 21 94 64 10
57 -12 87 -91 121 -106 46 -141 71 -164 119 -36 72 -23 144 35 197 57 52 140
63 212 28z m420 -6 c36 -26 72 -99 72 -146 0 -43 -31 -111 -57 -126 -17 -9
-17 -10 -1 -16 58 -23 79 -163 35 -239 -32 -56 -78 -78 -152 -74 -40 2 -70 10
-88 23 -32 24 -67 90 -67 128 0 25 3 27 40 27 41 0 43 -2 55 -53 7 -34 55 -58
94 -48 36 10 63 65 57 115 -6 54 -33 78 -95 84 l-51 5 0 38 0 39 44 0 c67 0
91 25 91 93 0 40 -5 61 -19 76 -39 43 -110 17 -122 -44 -6 -34 -8 -35 -51 -35
l-45 0 7 38 c16 90 89 147 178 139 27 -2 61 -13 75 -24z m272 -288 l0 -305
-45 0 -45 0 0 305 0 305 45 0 45 0 0 -305z"/>
</g>
</svg>
